<svg width="52" height="50" viewBox="0 0 52 50" fill="none" xmlns="http://www.w3.org/2000/svg">
<path fill-rule="evenodd" clip-rule="evenodd" d="M46.9022 25.0001C46.9022 36.506 37.546 45.8334 26.0046 45.8334C14.4632 45.8334 5.10701 36.506 5.10701 25.0001C5.10701 13.4941 14.4632 4.16675 26.0046 4.16675C37.546 4.16675 46.9022 13.4941 46.9022 25.0001ZM26.7534 19.5469C24.7208 20.3897 20.6585 22.1341 14.5664 24.7802C13.5772 25.1724 13.0589 25.556 13.0118 25.9312C12.932 26.5652 13.7285 26.8149 14.813 27.1548C14.9605 27.2011 15.1133 27.249 15.2701 27.2998C16.337 27.6456 17.7723 28.0501 18.5185 28.0661C19.1953 28.0807 19.9507 27.8025 20.7848 27.2316C26.4768 23.4012 29.415 21.4651 29.5995 21.4233C29.7296 21.3939 29.91 21.3568 30.0322 21.4651C30.1543 21.5734 30.1423 21.7784 30.1294 21.8334C30.0505 22.1688 26.9243 25.0662 25.3064 26.5657C24.8021 27.0331 24.4443 27.3647 24.3712 27.4405C24.2074 27.6101 24.0404 27.7706 23.8799 27.9248C22.8887 28.8774 22.1453 29.5918 23.9211 30.7584C24.7744 31.319 25.4573 31.7826 26.1385 32.2451C26.8825 32.7502 27.6246 33.254 28.5847 33.8815C28.8293 34.0413 29.063 34.2074 29.2905 34.3691C30.1563 34.9845 30.9342 35.5373 31.8952 35.4491C32.4536 35.3979 33.0304 34.8744 33.3234 33.3132C34.0157 29.6236 35.3765 21.6294 35.691 18.3351C35.7185 18.0465 35.6839 17.6771 35.656 17.515C35.6282 17.3528 35.57 17.1218 35.3586 16.9508C35.1082 16.7483 34.7217 16.7055 34.5488 16.7086C33.7628 16.7224 32.5569 17.1404 26.7534 19.5469Z" fill="#E8E8E8"/>
</svg>
