<svg width="21" height="20" viewBox="0 0 21 20" fill="none" xmlns="http://www.w3.org/2000/svg">
  <path
    d="M15.6773 12.9303C16.8877 11.2787 17.4298 9.23094 17.1952 7.19676C16.9606 5.16258 15.9666 3.292 14.412 1.95924C12.8575 0.626475 10.857 -0.0701716 8.81088 0.00866987C6.76474 0.0875113 4.82382 0.936027 3.37643 2.38446C1.92903 3.83289 1.0819 5.77442 1.00453 7.82062C0.927149 9.86681 1.62523 11.8668 2.9591 13.4204C4.29297 14.974 6.16427 15.9667 8.19861 16.1998C10.233 16.433 12.2803 15.8894 13.9311 14.6778H13.9298C13.9673 14.7278 14.0073 14.7753 14.0523 14.8216L18.8648 19.6341C19.0992 19.8686 19.4172 20.0005 19.7488 20.0006C20.0804 20.0007 20.3984 19.8691 20.633 19.6347C20.8675 19.4003 20.9994 19.0824 20.9995 18.7508C20.9996 18.4192 20.868 18.1011 20.6336 17.8666L15.8211 13.0541C15.7764 13.0088 15.7283 12.967 15.6773 12.9291V12.9303ZM15.9998 8.12532C15.9998 9.02816 15.822 9.92216 15.4765 10.7563C15.131 11.5904 14.6246 12.3483 13.9862 12.9867C13.3478 13.6251 12.5899 14.1315 11.7558 14.477C10.9217 14.8225 10.0277 15.0003 9.12484 15.0003C8.222 15.0003 7.32801 14.8225 6.49389 14.477C5.65978 14.1315 4.90188 13.6251 4.26348 12.9867C3.62508 12.3483 3.11867 11.5904 2.77317 10.7563C2.42767 9.92216 2.24984 9.02816 2.24984 8.12532C2.24984 6.30196 2.97417 4.55328 4.26348 3.26397C5.55279 1.97465 7.30148 1.25032 9.12484 1.25032C10.9482 1.25032 12.6969 1.97465 13.9862 3.26397C15.2755 4.55328 15.9998 6.30196 15.9998 8.12532Z"
    fill="#364365" />
</svg>