<svg width="17" height="19" viewBox="0 0 17 19" fill="none" xmlns="http://www.w3.org/2000/svg">
  <path
    d="M1.5005 4.25V17.0833C1.49507 17.3078 1.53393 17.5311 1.61484 17.7406C1.69576 17.95 1.81715 18.1415 1.97208 18.304C2.12701 18.4665 2.31245 18.5969 2.51779 18.6877C2.72314 18.7786 2.94436 18.828 3.16883 18.8333H13.803C14.0299 18.8318 14.2543 18.7852 14.463 18.6961C14.6718 18.6069 14.8606 18.4771 15.0186 18.3142C15.1767 18.1513 15.3007 17.9586 15.3834 17.7472C15.4661 17.5359 15.5059 17.3102 15.5005 17.0833V4.25H1.5005ZM6.7505 15.9167H5.58383V7.16667H6.7505V15.9167ZM11.4172 15.9167H10.2505V7.16667H11.4172V15.9167Z"
    fill="white" />
  <path
    d="M15.9265 1.91669H11.4173V1.33335C11.4173 1.02393 11.2944 0.727188 11.0756 0.508396C10.8568 0.289603 10.5601 0.166687 10.2507 0.166687H6.63398C6.34521 0.195707 6.07761 0.331321 5.88346 0.547048C5.6893 0.762776 5.58253 1.04313 5.58398 1.33335V1.91669H0.917318C0.762608 1.91669 0.614235 1.97815 0.504839 2.08754C0.395443 2.19694 0.333984 2.34531 0.333984 2.50002C0.333984 2.65473 0.395443 2.8031 0.504839 2.9125C0.614235 3.0219 0.762608 3.08335 0.917318 3.08335H15.9265C16.0812 3.08335 16.2296 3.0219 16.339 2.9125C16.4484 2.8031 16.5098 2.65473 16.5098 2.50002C16.5098 2.34531 16.4484 2.19694 16.339 2.08754C16.2296 1.97815 16.0812 1.91669 15.9265 1.91669Z"
    fill="white" />
</svg>