<svg width="51" height="50" viewBox="0 0 51 50" fill="none" xmlns="http://www.w3.org/2000/svg">
<path fill-rule="evenodd" clip-rule="evenodd" d="M6.44347 24.4377C6.44347 13.9872 14.6563 6.25024 25.2513 6.25024C35.8463 6.25024 44.0591 13.9872 44.0591 24.4377C44.0591 34.8882 35.8463 42.6252 25.2513 42.6252C23.3482 42.6252 21.5225 42.3748 19.807 41.9045C19.4735 41.813 19.1189 41.8389 18.8025 41.978L15.0694 43.6209C14.0929 44.0506 12.9906 43.3584 12.9579 42.2945L12.8554 38.9592C12.8428 38.5482 12.6574 38.1642 12.3502 37.8901C8.69063 34.6275 6.44347 29.904 6.44347 24.4377ZM19.4821 21.0183L13.9573 29.7566C13.4271 30.5952 14.4611 31.5402 15.2531 30.941L21.1877 26.4509C21.5891 26.1471 22.1439 26.1455 22.547 26.447L26.9413 29.7325C28.2598 30.7185 30.1417 30.3723 31.0206 28.9822L36.5454 20.2439C37.0755 19.4053 36.0415 18.4603 35.2494 19.0595L29.3149 23.5496C28.9134 23.8533 28.3587 23.855 27.9556 23.5535L23.5614 20.268C22.2428 19.2821 20.3609 19.6282 19.4821 21.0183Z" fill="#E8E8E8"/>
</svg>
