<svg width="49" height="48" viewBox="0 0 49 48" fill="none" xmlns="http://www.w3.org/2000/svg">
<path d="M24.9259 0C18.5411 0 12.4178 2.52856 7.90305 7.02944C3.38829 11.5303 0.851929 17.6348 0.851929 24C0.851929 30.3652 3.38829 36.4697 7.90305 40.9706C12.4178 45.4714 18.5411 48 24.9259 48C31.3108 48 37.4341 45.4714 41.9488 40.9706C46.4636 36.4697 49 30.3652 49 24C49 17.6348 46.4636 11.5303 41.9488 7.02944C37.4341 2.52856 31.3108 0 24.9259 0ZM12.8889 12H36.963C37.3933 12 37.8086 12.093 38.1937 12.264L24.9259 27.693L11.6582 12.264C12.0446 12.0889 12.4644 11.9988 12.8889 12ZM9.87969 33V15L9.8857 14.811L18.7088 25.074L9.982 33.774C9.91307 33.5218 9.87865 33.2614 9.87969 33ZM36.963 36H12.8889C12.6241 36 12.3623 35.964 12.1125 35.898L20.6769 27.36L24.929 32.304L29.181 27.36L37.7454 35.898C37.4924 35.9667 37.2312 36.001 36.969 36H36.963ZM39.9722 33C39.9722 33.264 39.9361 33.525 39.8699 33.774L31.1431 25.074L39.9662 14.811L39.9722 15V33Z" fill="#E8E8E8"/>
</svg>
