<svg width="49" height="48" viewBox="0 0 49 48" fill="none" xmlns="http://www.w3.org/2000/svg">
<path d="M24.9259 0C11.6302 0 0.851929 10.7452 0.851929 24C0.851929 37.2548 11.6302 48 24.9259 48C38.2217 48 49 37.2548 49 24C49 10.7452 38.2217 0 24.9259 0ZM16.2743 9.5332C16.7704 9.50404 17.2187 9.7996 17.5586 10.3242L20.8499 16.5468C21.1965 17.2842 20.9996 18.0737 20.4826 18.6006L18.975 20.1035C18.882 20.2306 18.8208 20.3738 18.8193 20.5312C19.3974 22.7622 21.1511 24.8201 22.6985 26.2353C24.2457 27.6505 25.9087 29.5666 28.0674 30.0205C28.3343 30.0947 28.6611 30.1213 28.8521 29.9444L30.6036 28.166C31.2081 27.7092 32.0828 27.4878 32.7283 27.8614H32.7576L38.6967 31.3565C39.5685 31.9012 39.6588 32.9542 39.0347 33.5948L34.9441 37.6406C34.34 38.2582 33.5374 38.4659 32.7577 38.4668C29.3092 38.3638 26.0508 36.6764 23.3744 34.9424C18.9813 31.7563 14.9516 27.8046 12.4217 23.0303C11.4514 21.0283 10.3117 18.4739 10.4204 16.2393C10.4301 15.3987 10.6583 14.5751 11.2521 14.0333L15.3428 9.95516C15.6615 9.68484 15.9767 9.55072 16.2743 9.5332Z" fill="#E8E8E8"/>
</svg>
